<svg width="963" height="463" xmlns="http://www.w3.org/2000/svg" xmlns:xlink="http://www.w3.org/1999/xlink" xml:space="preserve" overflow="hidden"><defs><clipPath id="clip0"><rect x="186" y="110" width="963" height="463"/></clipPath></defs><g clip-path="url(#clip0)" transform="translate(-186 -110)"><path d="M406.133 135.03C406.133 146.299 397.831 153.799 384.998 153.799 374.611 153.799 367.472 148.946 363.502 144.374L368.956 136.073C373.729 141.286 379.423 144.093 385.158 144.093 390.813 144.093 394.663 141.366 394.663 136.073 394.663 131.3 391.495 129.736 386.281 127.611L376.777 123.841C370.159 121.194 365.748 116.542 365.748 109.123 365.748 98.5354 374.049 91.2365 386.802 91.2365 395.425 91.2365 401.681 94.8458 405.29 98.5354L399.836 106.717C395.946 103.187 391.294 100.621 386.081 100.621 381.068 100.621 377.097 103.107 377.097 107.599 377.097 112.01 380.867 113.695 384.075 115.018L394.222 119.149C402.804 122.718 406.133 127.45 406.133 135.03Z" stroke="#A5A5A5" stroke-width="1.32846" fill="#FFFFFF" transform="matrix(1.0008 0 0 1 188.479 110)"/><path d="M437.775 145.096C443.509 145.096 448.603 142.529 450.648 140.765L455.059 146.861C452.693 149.347 446.237 153.718 435.85 153.718 422.976 153.718 413.472 145.858 413.472 132.142 413.472 118.467 423.417 109.323 435.569 109.323 448.683 109.323 456.623 117.946 456.623 129.335 456.623 131.541 456.463 135.07 456.463 135.07L425.102 135.07C426.144 141.808 431.358 145.096 437.775 145.096ZM424.901 127.731 445.354 127.731C445.194 123.079 443.429 117.705 435.489 117.705 428.791 117.665 425.262 122.357 424.901 127.731Z" stroke="#A5A5A5" stroke-width="1.32846" fill="#FFFFFF" transform="matrix(1.0008 0 0 1 188.479 110)"/><path d="M499.695 139.722 502.863 148.024C501.981 148.826 497.57 153.759 486.22 153.759 474.59 153.759 463.842 145.738 463.842 131.822 463.842 117.825 474.951 109.363 486.381 109.363 497.128 109.363 501.339 113.695 502.502 114.818L499.414 123.28C498.091 122.036 494.321 118.788 487.704 118.788 481.007 118.788 475.633 123.44 475.633 131.3 475.633 139.161 481.007 144.254 488.306 144.254 495.645 144.214 499.695 139.722 499.695 139.722Z" stroke="#A5A5A5" stroke-width="1.32846" fill="#FFFFFF" transform="matrix(1.0008 0 0 1 188.479 110)"/><path d="M522.875 110.085 522.715 116.943 522.995 116.943C524.68 112.371 528.891 109.283 533.463 109.283 536.35 109.283 537.954 110.085 537.954 110.085L537.152 119.871 536.631 119.871C535.388 119.51 533.463 119.349 531.979 119.349 528.65 119.349 526.083 120.753 524.479 123.48 523.437 125.606 522.875 128.493 522.875 131.782L522.875 152.756 511.686 152.756 511.686 110.085 522.875 110.085Z" stroke="#A5A5A5" stroke-width="1.32846" fill="#FFFFFF" transform="matrix(1.0008 0 0 1 188.479 110)"/><path d="M566.869 145.096C572.604 145.096 577.697 142.529 579.743 140.765L584.154 146.861C581.788 149.347 575.331 153.718 564.944 153.718 552.071 153.718 542.566 145.858 542.566 132.142 542.566 118.467 552.512 109.323 564.664 109.323 577.778 109.323 585.718 117.946 585.718 129.335 585.718 131.541 585.558 135.07 585.558 135.07L554.196 135.07C555.239 141.808 560.412 145.096 566.869 145.096ZM553.996 127.731 574.449 127.731C574.288 123.079 572.524 117.705 564.583 117.705 557.846 117.665 554.357 122.357 553.996 127.731Z" stroke="#A5A5A5" stroke-width="1.32846" fill="#FFFFFF" transform="matrix(1.0008 0 0 1 188.479 110)"/><path d="M613.711 144.294C615.997 144.294 617.761 143.572 617.761 143.572L618.363 152.315C617.841 152.475 614.473 153.718 609.74 153.718 600.998 153.718 597.388 149.748 597.388 138.639L597.388 118.908 591.052 118.908 591.052 110.166 597.388 110.166 597.388 98.014 608.577 98.014 608.577 110.166 618.443 110.166 618.443 118.908 608.577 118.908 608.577 136.193C608.617 142.69 609.74 144.294 613.711 144.294Z" stroke="#A5A5A5" stroke-width="1.32846" fill="#FFFFFF" transform="matrix(1.0008 0 0 1 188.479 110)"/><path d="M638.936 153.718C630.634 153.718 623.977 149.227 623.977 140.324 623.977 131.421 632.72 127.972 641.503 127.37L651.729 126.648 651.729 125.525C651.729 120.071 648.12 117.505 642.224 117.505 636.57 117.505 631.918 119.63 630.073 121.034L626.624 113.815C629.872 111.89 635.888 109.323 643.267 109.323 650.847 109.323 655.178 111.248 658.346 114.256 661.434 117.264 662.998 121.114 662.998 128.373L662.998 152.796 652.17 152.796 652.01 147.863C650.205 150.911 645.272 153.718 638.936 153.718ZM635.206 139.963C635.206 143.572 637.933 146.059 642.626 146.059 647.037 146.059 650.285 143.492 651.809 141.406L651.809 133.546 644.149 133.987C638.134 134.348 635.206 136.353 635.206 139.963Z" stroke="#A5A5A5" stroke-width="1.32846" fill="#FFFFFF" transform="matrix(1.0008 0 0 1 188.479 110)"/><path d="M686.138 110.085 685.978 116.943 686.259 116.943C687.943 112.371 692.154 109.283 696.726 109.283 699.613 109.283 701.217 110.085 701.217 110.085L700.415 119.871 699.894 119.871C698.651 119.51 696.726 119.349 695.242 119.349 691.913 119.349 689.347 120.753 687.742 123.48 686.7 125.606 686.138 128.493 686.138 131.782L686.138 152.756 674.949 152.756 674.949 110.085 686.138 110.085Z" stroke="#A5A5A5" stroke-width="1.32846" fill="#FFFFFF" transform="matrix(1.0008 0 0 1 188.479 110)"/><path d="M726.764 91.9583 717.339 104.751 709.158 104.751 716.577 91.9583 726.764 91.9583ZM720.668 110.085 720.668 152.716 709.399 152.716 709.399 110.085 720.668 110.085Z" stroke="#A5A5A5" stroke-width="1.32846" fill="#FFFFFF" transform="matrix(1.0008 0 0 1 188.479 110)"/><path d="M745.452 153.718C737.151 153.718 730.493 149.227 730.493 140.324 730.493 131.421 739.236 127.972 748.019 127.37L758.245 126.648 758.245 125.525C758.245 120.071 754.636 117.505 748.741 117.505 743.086 117.505 738.434 119.63 736.589 121.034L733.14 113.815C736.389 111.89 742.404 109.323 749.783 109.323 757.363 109.323 761.694 111.248 764.862 114.256 767.95 117.264 769.514 121.114 769.514 128.373L769.514 152.796 758.686 152.796 758.526 147.863C756.721 150.911 751.789 153.718 745.452 153.718ZM741.722 139.963C741.722 143.572 744.449 146.059 749.142 146.059 753.553 146.059 756.802 143.492 758.325 141.406L758.325 133.546 750.666 133.987C744.65 134.348 741.722 136.353 741.722 139.963Z" stroke="#A5A5A5" stroke-width="1.32846" fill="#FFFFFF" transform="matrix(1.0008 0 0 1 188.479 110)"/><path d="M398.312 238.338C394.863 243.792 389.57 245.998 383.674 245.998 371.162 245.998 363.502 236.292 363.502 223.62 363.502 211.548 371.523 201.603 384.477 201.603 390.211 201.603 395.064 203.728 398.032 208.3L398.192 208.3C398.112 206.375 398.112 204.089 398.112 201.081L398.112 184.238 409.301 184.238 409.301 245.035 398.633 245.035 398.553 238.338 398.312 238.338ZM398.393 223.66C398.393 216.521 393.74 210.265 386.482 210.265 379.183 210.265 374.932 216.521 374.932 223.66 374.932 231.079 379.504 236.894 386.843 236.894 393.62 236.854 398.393 231.64 398.393 223.66Z" stroke="#A5A5A5" stroke-width="1.32846" fill="#FFFFFF" transform="matrix(1.0008 0 0 1 188.479 110)"/><path d="M443.951 237.375C449.685 237.375 454.779 234.809 456.824 233.044L461.235 239.14C458.869 241.626 452.413 245.998 442.026 245.998 429.152 245.998 419.648 238.137 419.648 224.422 419.648 210.746 429.593 201.603 441.745 201.603 454.859 201.603 462.799 210.225 462.799 221.614 462.799 223.82 462.639 227.349 462.639 227.349L431.278 227.349C432.32 234.127 437.494 237.375 443.951 237.375ZM431.077 220.01 451.53 220.01C451.37 215.358 449.605 209.984 441.665 209.984 434.967 209.984 431.438 214.636 431.077 220.01Z" stroke="#A5A5A5" stroke-width="1.32846" fill="#FFFFFF" transform="matrix(1.0008 0 0 1 188.479 110)"/><path d="M521.472 246.118C503.665 246.118 489.91 234.047 489.91 214.757 489.91 195.467 503.826 183.395 521.472 183.395 533.382 183.395 540.24 188.408 542.687 190.895L538.636 200.239C536.871 197.953 530.014 193.261 521.351 193.261 510.764 193.261 501.7 200.239 501.7 214.596 501.7 227.71 509.882 236.252 522.073 236.252 530.174 236.252 535.829 232.723 539.438 228.833L543.489 237.455C540.08 241.185 533.463 246.118 521.472 246.118Z" stroke="#A5A5A5" stroke-width="1.32846" fill="#FFFFFF" transform="matrix(1.0008 0 0 1 188.479 110)"/><path d="M549.424 223.9C549.424 210.425 559.45 201.603 572.604 201.603 585.638 201.603 595.704 210.425 595.704 223.9 595.704 237.375 585.678 245.998 572.604 245.998 559.45 246.038 549.424 237.375 549.424 223.9ZM572.564 210.706C565.145 210.706 561.094 216.361 561.094 223.66 561.094 230.959 565.145 236.693 572.564 236.693 579.783 236.693 584.034 230.959 584.034 223.66 584.034 216.361 579.823 210.706 572.564 210.706Z" stroke="#A5A5A5" stroke-width="1.32846" fill="#FFFFFF" transform="matrix(1.0008 0 0 1 188.479 110)"/><path d="M626.303 210.867C619.325 210.867 616.959 216.682 616.959 223.82L616.959 245.075 605.69 245.075 605.69 202.405 616.959 202.405 616.879 208.821 617.16 208.821C619.445 204.33 623.777 201.603 629.953 201.603 642.184 201.603 645.272 209.543 645.272 219.77L645.272 245.075 634.003 245.075 634.003 222.256C634.003 215.88 632.84 210.867 626.303 210.867Z" stroke="#A5A5A5" stroke-width="1.32846" fill="#FFFFFF" transform="matrix(1.0008 0 0 1 188.479 110)"/><path d="M675.912 236.613C678.198 236.613 679.962 235.891 679.962 235.891L680.564 244.634C680.043 244.794 676.674 246.038 671.942 246.038 663.199 246.038 659.59 242.067 659.59 230.959L659.59 211.227 653.253 211.227 653.253 202.485 659.59 202.485 659.59 190.333 670.779 190.333 670.779 202.485 680.644 202.485 680.644 211.227 670.779 211.227 670.779 228.512C670.819 235.009 671.942 236.613 675.912 236.613Z" stroke="#A5A5A5" stroke-width="1.32846" fill="#FFFFFF" transform="matrix(1.0008 0 0 1 188.479 110)"/><path d="M700.576 202.405 700.415 209.262 700.696 209.262C702.38 204.691 706.591 201.603 711.163 201.603 714.051 201.603 715.655 202.405 715.655 202.405L714.853 212.19 714.331 212.19C713.088 211.829 711.163 211.669 709.679 211.669 706.351 211.669 703.784 213.072 702.18 215.799 701.137 217.925 700.576 220.812 700.576 224.101L700.576 245.075 689.387 245.075 689.387 202.405 700.576 202.405Z" stroke="#A5A5A5" stroke-width="1.32846" fill="#FFFFFF" transform="matrix(1.0008 0 0 1 188.479 110)"/><path d="M733.461 246.038C725.159 246.038 718.502 241.546 718.502 232.643 718.502 223.74 727.245 220.291 736.028 219.689L746.254 218.968 746.254 217.805C746.254 212.35 742.645 209.784 736.75 209.784 731.095 209.784 726.443 211.909 724.598 213.313L721.149 206.094C724.398 204.169 730.413 201.603 737.792 201.603 745.372 201.603 749.703 203.527 752.871 206.535 755.959 209.543 757.523 213.393 757.523 220.652L757.523 245.075 746.695 245.075 746.535 240.142C744.73 243.19 739.797 246.038 733.461 246.038ZM729.771 232.282C729.771 235.891 732.498 238.378 737.191 238.378 741.602 238.378 744.85 235.811 746.374 233.726L746.374 225.865 738.715 226.307C732.659 226.627 729.771 228.673 729.771 232.282Z" stroke="#A5A5A5" stroke-width="1.32846" fill="#FFFFFF" transform="matrix(1.0008 0 0 1 188.479 110)"/><path d="M781.104 184.238 781.104 245.035 769.915 245.035 769.915 184.238 781.104 184.238Z" stroke="#A5A5A5" stroke-width="1.32846" fill="#FFFFFF" transform="matrix(1.0008 0 0 1 188.479 110)"/><path d="M791.612 223.9C791.612 210.425 801.638 201.603 814.792 201.603 827.826 201.603 837.892 210.425 837.892 223.9 837.892 237.375 827.866 245.998 814.792 245.998 801.638 246.038 791.612 237.375 791.612 223.9ZM814.792 210.706C807.373 210.706 803.322 216.361 803.322 223.66 803.322 230.959 807.373 236.693 814.792 236.693 822.01 236.693 826.261 230.959 826.261 223.66 826.261 216.361 822.01 210.706 814.792 210.706Z" stroke="#A5A5A5" stroke-width="1.32846" fill="#FFFFFF" transform="matrix(1.0008 0 0 1 188.479 110)"/><path d="M859.107 202.405 858.946 209.262 859.227 209.262C860.911 204.691 865.122 201.603 869.694 201.603 872.582 201.603 874.186 202.405 874.186 202.405L873.384 212.19 872.862 212.19C871.619 211.829 869.694 211.669 868.21 211.669 864.882 211.669 862.315 213.072 860.711 215.799 859.668 217.925 859.107 220.812 859.107 224.101L859.107 245.075 847.918 245.075 847.918 202.405 859.107 202.405Z" stroke="#A5A5A5" stroke-width="1.32846" fill="#FFFFFF" transform="matrix(1.0008 0 0 1 188.479 110)"/><path d="M899.692 184.238 890.267 197.031 882.086 197.031 889.505 184.238 899.692 184.238ZM893.636 202.405 893.636 245.035 882.367 245.035 882.367 202.405 893.636 202.405Z" stroke="#A5A5A5" stroke-width="1.32846" fill="#FFFFFF" transform="matrix(1.0008 0 0 1 188.479 110)"/><path d="M918.38 246.038C910.079 246.038 903.422 241.546 903.422 232.643 903.422 223.74 912.164 220.291 920.947 219.689L931.173 218.968 931.173 217.805C931.173 212.35 927.564 209.784 921.669 209.784 916.014 209.784 911.362 211.909 909.517 213.313L906.068 206.094C909.317 204.169 915.332 201.603 922.711 201.603 930.291 201.603 934.622 203.527 937.791 206.535 940.879 209.543 942.443 213.393 942.443 220.652L942.443 245.075 931.615 245.075 931.454 240.142C929.649 243.19 924.717 246.038 918.38 246.038ZM914.691 232.282C914.691 235.891 917.418 238.378 922.11 238.378 926.521 238.378 929.77 235.811 931.294 233.726L931.294 225.865 923.634 226.307C917.578 226.627 914.691 228.673 914.691 232.282Z" stroke="#A5A5A5" stroke-width="1.32846" fill="#FFFFFF" transform="matrix(1.0008 0 0 1 188.479 110)"/><path d="M375.854 316.46 385.198 316.46 385.198 325.323C384.436 326.045 381.589 329.013 375.654 329.013 369.357 329.013 364.184 325.042 364.184 317.623 364.184 310.525 369.357 306.234 375.573 306.234 381.268 306.234 383.835 309.282 384.597 310.084L381.79 312.57C380.667 311.287 378.782 309.763 375.533 309.763 371.483 309.763 368.435 312.65 368.435 317.623 368.435 322.596 371.603 325.484 375.694 325.484 379.744 325.484 381.108 323.799 381.108 323.799L381.108 319.749 375.774 319.749 375.774 316.46Z" stroke="#A5A5A5" stroke-width="1.32846" fill="#FFFFFF" transform="matrix(1.0008 0 0 1 188.479 110)"/><path d="M395.505 317.583C395.505 310.485 400.678 306.194 407.055 306.194 413.472 306.194 418.605 310.485 418.605 317.583 418.605 324.681 413.432 328.973 407.055 328.973 400.719 329.013 395.505 324.722 395.505 317.583ZM407.055 309.803C402.964 309.803 399.796 312.731 399.796 317.543 399.796 322.355 403.004 325.323 407.055 325.323 411.146 325.323 414.314 322.355 414.314 317.543 414.354 312.771 411.186 309.803 407.055 309.803Z" stroke="#A5A5A5" stroke-width="1.32846" fill="#FFFFFF" transform="matrix(1.0008 0 0 1 188.479 110)"/><path d="M437.053 306.514C438.857 306.514 440.502 306.675 441.945 307.397 443.67 308.239 444.793 309.562 444.793 312.089 444.793 314.776 442.788 316.34 441.384 316.941L441.384 317.022C444.231 317.663 446.116 319.508 446.116 322.355 446.116 324.762 444.993 326.486 443.469 327.449 442.106 328.331 440.141 328.652 438.015 328.652L429.954 328.652 429.954 306.555 437.053 306.555ZM439.379 315.217C440.141 314.736 440.582 313.974 440.582 312.65 440.582 310.725 439.058 309.803 436.932 309.803L434.125 309.803 434.125 315.778 436.732 315.778C437.895 315.738 438.697 315.618 439.379 315.217ZM440.702 324.762C441.424 324.28 441.905 323.278 441.905 322.115 441.905 320.912 441.344 320.07 440.542 319.508 439.7 318.947 438.857 318.786 437.574 318.786L434.165 318.786 434.165 325.363 437.735 325.363C438.777 325.363 439.82 325.323 440.702 324.762Z" stroke="#A5A5A5" stroke-width="1.32846" fill="#FFFFFF" transform="matrix(1.0008 0 0 1 188.479 110)"/><path d="M461.436 306.514 461.436 328.612 457.265 328.612 457.265 306.514 461.436 306.514Z" stroke="#A5A5A5" stroke-width="1.32846" fill="#FFFFFF" transform="matrix(1.0008 0 0 1 188.479 110)"/><path d="M487.584 306.514 487.584 309.963 478.119 309.963 478.119 315.458 487.062 315.458 487.062 318.866 478.119 318.866 478.119 325.163 487.864 325.163 487.864 328.612 473.948 328.612 473.948 306.514 487.584 306.514Z" stroke="#A5A5A5" stroke-width="1.32846" fill="#FFFFFF" transform="matrix(1.0008 0 0 1 188.479 110)"/><path d="M503.585 319.669 503.585 328.652 499.414 328.652 499.414 306.555 506.513 306.555C508.839 306.555 510.724 307.076 512.087 308.119 513.451 309.161 514.453 310.886 514.453 312.971 514.453 316.781 512.368 318.305 509.681 319.147L515.656 328.612 510.804 328.612 505.59 319.628 503.585 319.628ZM508.879 315.658C509.721 315.057 510.162 314.295 510.162 313.051 510.162 311.848 509.721 311.046 508.879 310.445 508.077 309.843 507.034 309.723 505.711 309.723L503.545 309.723 503.545 316.34 505.711 316.34C507.074 316.38 508.077 316.3 508.879 315.658Z" stroke="#A5A5A5" stroke-width="1.32846" fill="#FFFFFF" transform="matrix(1.0008 0 0 1 188.479 110)"/><path d="M529.813 317.744 529.813 328.612 525.763 328.612 525.763 306.514 530.174 306.514 541.163 322.636C541.163 322.636 541.082 320.029 541.082 317.423L541.082 306.514 545.133 306.514 545.133 328.612 540.922 328.612 529.693 312.289C529.733 312.329 529.813 315.137 529.813 317.744Z" stroke="#A5A5A5" stroke-width="1.32846" fill="#FFFFFF" transform="matrix(1.0008 0 0 1 188.479 110)"/><path d="M556.482 317.583C556.482 310.485 561.656 306.194 568.032 306.194 574.449 306.194 579.582 310.485 579.582 317.583 579.582 324.681 574.409 328.973 568.032 328.973 561.696 329.013 556.482 324.722 556.482 317.583ZM568.072 309.803C563.982 309.803 560.813 312.731 560.813 317.543 560.813 322.355 564.022 325.323 568.072 325.323 572.163 325.323 575.331 322.355 575.331 317.543 575.331 312.771 572.163 309.803 568.072 309.803Z" stroke="#A5A5A5" stroke-width="1.32846" fill="#FFFFFF" transform="matrix(1.0008 0 0 1 188.479 110)"/><path d="M612.467 306.514C616.317 306.514 619.165 307.758 620.849 309.322 622.574 310.846 624.378 313.372 624.378 317.543 624.378 321.754 622.574 324.361 620.849 325.885 619.165 327.409 616.317 328.652 612.467 328.652L605.369 328.652 605.369 306.555 612.467 306.555ZM617.881 323.278C618.924 322.235 620.087 320.551 620.087 317.583 620.087 314.656 618.924 312.851 617.881 311.808 616.799 310.806 615.034 310.003 612.628 310.003L609.54 310.003 609.54 325.083 612.628 325.083C615.034 325.083 616.799 324.28 617.881 323.278Z" stroke="#A5A5A5" stroke-width="1.32846" fill="#FFFFFF" transform="matrix(1.0008 0 0 1 188.479 110)"/><path d="M649.363 306.514 649.363 309.963 639.898 309.963 639.898 315.458 648.842 315.458 648.842 318.866 639.898 318.866 639.898 325.163 649.644 325.163 649.644 328.612 635.728 328.612 635.728 306.514 649.363 306.514Z" stroke="#A5A5A5" stroke-width="1.32846" fill="#FFFFFF" transform="matrix(1.0008 0 0 1 188.479 110)"/><path d="M694.6 311.928 688.705 328.732 685.777 328.732 680.002 311.928 679.922 311.928 678.719 328.612 674.709 328.612 676.553 306.514 682.048 306.514 687.382 322.355 687.462 322.355 692.876 306.514 698.169 306.514 700.054 328.612 695.964 328.612 694.68 311.928 694.6 311.928Z" stroke="#A5A5A5" stroke-width="1.32846" fill="#FFFFFF" transform="matrix(1.0008 0 0 1 188.479 110)"/><path d="M715.815 306.514 715.815 328.612 711.644 328.612 711.644 306.514 715.815 306.514Z" stroke="#A5A5A5" stroke-width="1.32846" fill="#FFFFFF" transform="matrix(1.0008 0 0 1 188.479 110)"/><path d="M738.594 329.013C732.138 329.013 727.125 324.641 727.125 317.623 727.125 310.605 732.178 306.234 738.594 306.234 742.925 306.234 745.412 308.078 746.334 308.961L744.85 312.37C744.209 311.527 741.722 309.843 738.554 309.843 734.704 309.843 731.416 312.37 731.416 317.583 731.416 322.355 734.383 325.484 738.835 325.484 741.763 325.484 743.848 324.2 745.131 322.797L746.615 325.925C745.372 327.208 742.966 329.013 738.594 329.013Z" stroke="#A5A5A5" stroke-width="1.32846" fill="#FFFFFF" transform="matrix(1.0008 0 0 1 188.479 110)"/><path d="M761.614 318.866 761.614 328.652 757.443 328.652 757.443 306.555 761.614 306.555 761.614 315.418 771.921 315.418 771.921 306.555 776.051 306.555 776.051 328.652 771.921 328.652 771.921 318.866 761.614 318.866Z" stroke="#A5A5A5" stroke-width="1.32846" fill="#FFFFFF" transform="matrix(1.0008 0 0 1 188.479 110)"/><path d="M787.401 317.583C787.401 310.485 792.574 306.194 798.951 306.194 805.367 306.194 810.501 310.485 810.501 317.583 810.501 324.681 805.327 328.973 798.951 328.973 792.574 329.013 787.401 324.722 787.401 317.583ZM798.951 309.803C794.86 309.803 791.692 312.731 791.692 317.543 791.692 322.355 794.9 325.323 798.951 325.323 803.041 325.323 806.21 322.355 806.21 317.543 806.25 312.771 803.081 309.803 798.951 309.803Z" stroke="#A5A5A5" stroke-width="1.32846" fill="#FFFFFF" transform="matrix(1.0008 0 0 1 188.479 110)"/><path d="M825.219 323.518 823.294 328.612 818.963 328.612 827.625 306.474 831.676 306.474 840.338 328.612 835.806 328.612 833.881 323.518 825.219 323.518ZM832.879 320.19 829.59 311.247 826.261 320.19 832.879 320.19Z" stroke="#A5A5A5" stroke-width="1.32846" fill="#FFFFFF" transform="matrix(1.0008 0 0 1 188.479 110)"/><path d="M860.27 329.013C853.813 329.013 848.8 324.641 848.8 317.623 848.8 310.605 853.853 306.234 860.27 306.234 864.601 306.234 867.087 308.078 868.01 308.961L866.526 312.37C865.884 311.527 863.398 309.843 860.23 309.843 856.38 309.843 853.091 312.37 853.091 317.583 853.091 322.355 856.059 325.484 860.51 325.484 863.438 325.484 865.523 324.2 866.807 322.797L868.29 325.925C867.007 327.208 864.601 329.013 860.27 329.013Z" stroke="#A5A5A5" stroke-width="1.32846" fill="#FFFFFF" transform="matrix(1.0008 0 0 1 188.479 110)"/><path d="M883.209 323.518 881.284 328.612 876.953 328.612 885.615 306.474 889.666 306.474 898.328 328.612 893.797 328.612 891.872 323.518 883.209 323.518ZM890.869 320.19 887.58 311.247 884.252 320.19 890.869 320.19ZM892.473 300.379 889.064 305.031 886.097 305.031 888.784 300.379 892.473 300.379Z" stroke="#A5A5A5" stroke-width="1.32846" fill="#FFFFFF" transform="matrix(1.0008 0 0 1 188.479 110)"/><path d="M912.685 317.744 912.685 328.612 908.635 328.612 908.635 306.514 913.046 306.514 924.035 322.636C924.035 322.636 923.955 320.029 923.955 317.423L923.955 306.514 928.005 306.514 928.005 328.612 923.794 328.612 912.565 312.289C912.645 312.329 912.685 315.137 912.685 317.744Z" stroke="#A5A5A5" stroke-width="1.32846" fill="#FFFFFF" transform="matrix(1.0008 0 0 1 188.479 110)"/><path d="M184.478 200.199C184.398 200.239 184.318 200.279 184.238 200.359 184.157 200.399 184.077 200.48 183.997 200.52 183.997 200.52 183.957 200.56 183.957 200.56 183.917 200.6 183.877 200.64 183.877 200.68 183.796 200.76 183.716 200.841 183.676 200.921 183.636 201.001 183.596 201.041 183.556 201.121 183.516 201.201 183.435 201.282 183.395 201.362 183.355 201.442 183.315 201.522 183.275 201.603 183.235 201.683 183.195 201.763 183.195 201.843 183.155 201.923 183.155 202.004 183.155 202.084 183.155 202.164 183.115 202.244 183.115 202.324 183.115 202.405 183.115 202.485 183.115 202.565 183.115 202.645 183.115 202.725 183.115 202.806 183.115 202.886 183.155 203.006 183.155 203.086 183.155 203.167 183.195 203.247 183.195 203.327 183.235 203.407 183.275 203.527 183.315 203.608 183.355 203.648 183.355 203.728 183.355 203.768 183.355 203.768 183.395 203.808 183.395 203.808 183.476 204.009 183.596 204.169 183.756 204.33L183.796 204.37C183.796 204.37 183.796 204.37 183.796 204.37L194.745 216.682C194.745 216.682 194.745 216.682 194.785 216.682 194.825 216.722 194.865 216.762 194.905 216.802 195.025 216.922 195.146 217.043 195.306 217.123 195.346 217.163 195.426 217.203 195.507 217.243 195.667 217.323 195.787 217.403 195.948 217.444 195.988 217.444 196.068 217.484 196.108 217.484 196.309 217.524 196.549 217.564 196.75 217.564 196.75 217.564 196.75 217.564 196.75 217.564 196.75 217.564 196.75 217.564 196.75 217.564 196.75 217.564 196.75 217.564 196.75 217.564 196.95 217.564 197.111 217.524 197.311 217.484 197.351 217.484 197.432 217.444 197.472 217.444 197.592 217.403 197.753 217.363 197.873 217.283 197.913 217.283 197.953 217.283 197.953 217.243 198.033 217.203 204.049 214.235 209.944 214.235 215.799 214.235 221.855 217.203 221.935 217.243 221.975 217.243 222.015 217.283 222.056 217.283 222.136 217.323 222.256 217.363 222.336 217.403 222.416 217.444 222.457 217.444 222.537 217.444 222.657 217.484 222.737 217.484 222.858 217.484 222.938 217.484 222.978 217.484 223.058 217.484 223.098 217.484 223.138 217.484 223.138 217.484 223.219 217.484 223.259 217.484 223.339 217.484 223.419 217.484 223.499 217.484 223.579 217.444 223.66 217.444 223.78 217.403 223.86 217.363 223.94 217.323 224.021 217.323 224.101 217.283 224.181 217.243 224.261 217.203 224.341 217.163 224.422 217.123 224.502 217.083 224.582 217.043 224.662 217.002 224.742 216.962 224.783 216.882 224.863 216.802 224.943 216.762 225.023 216.682 225.063 216.641 225.103 216.601 225.144 216.561L236.132 204.209C236.132 204.209 236.172 204.169 236.172 204.129 236.212 204.049 236.292 203.969 236.333 203.888 236.373 203.808 236.453 203.728 236.493 203.648 236.493 203.608 236.533 203.608 236.533 203.568 236.573 203.527 236.573 203.487 236.573 203.407 236.613 203.327 236.653 203.207 236.693 203.126 236.734 203.046 236.734 202.966 236.734 202.886 236.734 202.806 236.774 202.685 236.774 202.605 236.774 202.525 236.774 202.445 236.774 202.364 236.774 202.284 236.774 202.164 236.774 202.084 236.774 202.004 236.734 201.923 236.734 201.843 236.734 201.763 236.693 201.643 236.653 201.562 236.613 201.482 236.613 201.402 236.573 201.322 236.533 201.242 236.493 201.161 236.453 201.081 236.413 201.001 236.373 200.921 236.333 200.841 236.292 200.76 236.252 200.68 236.172 200.64 236.092 200.56 236.052 200.48 235.972 200.399 235.931 200.359 235.891 200.319 235.851 200.279 235.851 200.279 235.811 200.239 235.811 200.239 235.731 200.159 235.651 200.119 235.571 200.079 235.49 200.038 235.41 199.958 235.33 199.918 235.29 199.918 235.29 199.878 235.25 199.878 234.728 199.637 222.457 193.542 209.864 193.542 197.271 193.542 184.999 199.597 184.478 199.878 184.518 200.159 184.518 200.159 184.478 200.199ZM229.675 203.527 222.457 211.669C219.85 210.626 214.957 208.942 209.984 208.942 204.971 208.942 200.079 210.626 197.512 211.669L190.293 203.527C194.544 201.803 202.324 199.196 210.024 199.196 217.604 199.196 225.384 201.843 229.675 203.527Z" stroke="#A5A5A5" stroke-width="1.32846" fill="#FFFFFF" transform="matrix(1.0008 0 0 1 188.479 110)"/><path d="M221.053 221.294C220.812 221.173 215.478 218.526 209.944 218.526 204.41 218.526 199.076 221.173 198.835 221.294 197.512 221.975 196.95 223.579 197.632 224.903 198.314 226.226 199.918 226.788 201.242 226.106 201.282 226.066 205.693 223.9 209.944 223.9 214.155 223.9 218.607 226.066 218.647 226.106 219.048 226.307 219.449 226.387 219.85 226.387 220.852 226.387 221.775 225.825 222.256 224.903 222.898 223.579 222.376 221.975 221.053 221.294Z" stroke="#A5A5A5" stroke-width="1.32846" fill="#FFFFFF" transform="matrix(1.0008 0 0 1 188.479 110)"/><path d="M183.074 126.047C183.074 126.127 183.115 126.247 183.115 126.327 183.115 126.408 183.155 126.488 183.155 126.568 183.195 126.648 183.235 126.769 183.275 126.849 183.315 126.889 183.315 126.969 183.315 127.009 183.315 127.049 183.355 127.049 183.355 127.089 183.395 127.17 183.435 127.25 183.516 127.33 183.556 127.41 183.636 127.49 183.676 127.571 183.676 127.571 183.716 127.611 183.716 127.651L194.705 140.003C194.705 140.003 194.705 140.003 194.745 140.003 194.785 140.043 194.825 140.083 194.865 140.123 194.985 140.243 195.106 140.364 195.266 140.444 195.306 140.484 195.386 140.524 195.467 140.564 195.627 140.645 195.747 140.725 195.908 140.765 195.948 140.765 196.028 140.805 196.068 140.805 196.269 140.845 196.509 140.885 196.71 140.885 196.71 140.885 196.71 140.885 196.71 140.885 196.71 140.885 196.71 140.885 196.71 140.885 196.71 140.885 196.71 140.885 196.71 140.885 196.91 140.885 197.071 140.845 197.271 140.805 197.311 140.805 197.392 140.765 197.432 140.765 197.552 140.725 197.712 140.685 197.833 140.604 197.873 140.604 197.913 140.604 197.913 140.564 197.993 140.524 204.009 137.557 209.904 137.557 215.759 137.557 221.815 140.524 221.895 140.564 221.935 140.564 221.975 140.604 222.015 140.604 222.096 140.645 222.216 140.685 222.296 140.725 222.376 140.765 222.416 140.765 222.497 140.765 222.617 140.805 222.697 140.805 222.818 140.805 222.898 140.805 222.938 140.805 223.018 140.805 223.058 140.805 223.098 140.805 223.098 140.805 223.178 140.805 223.219 140.805 223.299 140.805 223.379 140.805 223.459 140.805 223.539 140.765 223.62 140.765 223.74 140.725 223.82 140.685 223.9 140.645 223.98 140.645 224.061 140.604 224.141 140.564 224.221 140.524 224.301 140.484 224.382 140.444 224.462 140.404 224.542 140.364 224.622 140.324 224.702 140.284 224.742 140.203 224.823 140.123 224.903 140.083 224.983 140.003 225.023 139.963 225.063 139.923 225.103 139.883L236.052 127.571C236.052 127.571 236.052 127.571 236.052 127.571L236.092 127.531C236.252 127.37 236.373 127.17 236.453 127.009 236.453 127.009 236.493 126.969 236.493 126.969 236.533 126.929 236.533 126.849 236.533 126.809 236.573 126.728 236.613 126.608 236.653 126.528 236.693 126.448 236.693 126.368 236.693 126.287 236.693 126.207 236.734 126.087 236.734 126.007 236.734 125.926 236.734 125.846 236.734 125.766 236.734 125.686 236.734 125.565 236.734 125.485 236.734 125.405 236.693 125.325 236.693 125.245 236.693 125.164 236.653 125.044 236.613 124.964 236.573 124.884 236.573 124.803 236.533 124.723 236.493 124.643 236.453 124.563 236.413 124.483 236.373 124.402 236.333 124.322 236.292 124.242 236.252 124.162 236.212 124.082 236.132 124.041 236.052 123.961 236.012 123.881 235.931 123.801 235.891 123.761 235.851 123.721 235.811 123.681 235.811 123.681 235.771 123.64 235.771 123.64 235.691 123.56 235.611 123.52 235.53 123.48 235.45 123.44 235.37 123.36 235.29 123.32 235.25 123.32 235.25 123.28 235.21 123.28 234.688 123.039 222.416 116.943 209.824 116.943 197.231 116.943 184.959 122.999 184.438 123.28 184.398 123.28 184.398 123.32 184.398 123.32 184.318 123.36 184.238 123.4 184.157 123.48 184.077 123.52 183.997 123.6 183.917 123.64 183.917 123.64 183.877 123.681 183.877 123.681 183.836 123.721 183.796 123.761 183.796 123.801 183.716 123.881 183.636 123.961 183.596 124.041 183.556 124.122 183.516 124.162 183.476 124.242 183.435 124.322 183.355 124.402 183.315 124.483 183.275 124.563 183.235 124.643 183.195 124.723 183.155 124.803 183.115 124.884 183.115 124.964 183.074 125.044 183.074 125.124 183.074 125.204 183.074 125.285 183.034 125.365 183.034 125.445 183.034 125.525 183.034 125.606 183.034 125.686 183.074 125.886 183.074 125.966 183.074 126.047ZM229.675 126.769 222.457 134.91C219.85 133.867 214.957 132.183 209.984 132.183 204.971 132.183 200.079 133.867 197.512 134.91L190.293 126.769C194.544 125.044 202.324 122.437 210.024 122.437 217.604 122.437 225.384 125.084 229.675 126.769Z" stroke="#A5A5A5" stroke-width="1.32846" fill="#FFFFFF" transform="matrix(1.0008 0 0 1 188.479 110)"/><path d="M201.242 149.347C201.282 149.307 205.693 147.141 209.944 147.141 214.195 147.141 218.607 149.307 218.647 149.347 219.048 149.548 219.449 149.628 219.85 149.628 220.852 149.628 221.775 149.066 222.256 148.144 222.938 146.821 222.376 145.216 221.053 144.535 220.812 144.414 215.478 141.767 209.944 141.767 204.41 141.767 199.076 144.414 198.835 144.535 197.512 145.216 196.95 146.821 197.632 148.144 198.314 149.467 199.918 150.029 201.242 149.347Z" stroke="#A5A5A5" stroke-width="1.32846" fill="#FFFFFF" transform="matrix(1.0008 0 0 1 188.479 110)"/><path d="M152.194 162.22C152.114 162.261 152.034 162.301 151.954 162.381 151.874 162.421 151.793 162.501 151.713 162.541 151.713 162.541 151.673 162.581 151.673 162.581 151.633 162.621 151.593 162.662 151.593 162.702 151.513 162.782 151.432 162.862 151.392 162.942 151.352 163.023 151.312 163.063 151.272 163.143 151.232 163.223 151.152 163.303 151.112 163.383 151.072 163.464 151.031 163.544 150.991 163.624 150.951 163.704 150.911 163.785 150.911 163.865 150.871 163.945 150.871 164.025 150.871 164.105 150.871 164.186 150.831 164.266 150.831 164.346 150.831 164.426 150.831 164.506 150.831 164.587 150.831 164.667 150.831 164.747 150.831 164.827 150.831 164.907 150.871 165.028 150.871 165.108 150.871 165.188 150.911 165.268 150.911 165.349 150.951 165.429 150.991 165.549 151.031 165.629 151.072 165.669 151.072 165.75 151.072 165.79 151.072 165.79 151.112 165.83 151.112 165.83 151.192 166.03 151.312 166.191 151.473 166.351L151.513 166.391C151.513 166.391 151.513 166.391 151.513 166.391L162.461 178.703C162.461 178.703 162.461 178.703 162.501 178.703 162.541 178.743 162.581 178.783 162.621 178.823 162.742 178.944 162.862 179.064 163.023 179.144 163.063 179.184 163.143 179.225 163.223 179.265 163.383 179.345 163.504 179.425 163.664 179.465 163.704 179.465 163.785 179.505 163.825 179.505 164.025 179.545 164.266 179.585 164.466 179.585 164.466 179.585 164.466 179.585 164.466 179.585 164.466 179.585 164.466 179.585 164.466 179.585 164.466 179.585 164.466 179.585 164.466 179.585 164.667 179.585 164.827 179.545 165.028 179.505 165.068 179.505 165.148 179.465 165.188 179.465 165.308 179.425 165.469 179.385 165.589 179.305 165.629 179.305 165.669 179.305 165.669 179.265 165.75 179.225 171.765 176.257 177.66 176.257 183.516 176.257 189.571 179.225 189.652 179.265 189.692 179.265 189.732 179.305 189.772 179.305 189.852 179.345 189.972 179.385 190.053 179.425 190.093 179.425 190.173 179.465 190.213 179.465 190.333 179.505 190.454 179.505 190.534 179.505 190.574 179.505 190.654 179.505 190.694 179.505 190.734 179.505 190.774 179.505 190.815 179.505 190.895 179.505 190.935 179.505 191.015 179.465 191.095 179.465 191.175 179.465 191.256 179.425 191.336 179.425 191.456 179.385 191.536 179.345 191.617 179.305 191.697 179.305 191.777 179.265 191.857 179.225 191.937 179.184 192.018 179.144 192.098 179.104 192.178 179.064 192.258 179.024 192.339 178.984 192.419 178.944 192.459 178.864 192.539 178.783 192.619 178.703 192.699 178.663 192.74 178.623 192.78 178.583 192.82 178.543L203.808 166.191C203.808 166.151 203.848 166.151 203.848 166.111 203.888 166.03 203.969 165.95 204.009 165.91 204.049 165.83 204.129 165.75 204.169 165.669 204.169 165.629 204.209 165.629 204.209 165.589 204.249 165.549 204.249 165.469 204.249 165.429 204.289 165.349 204.33 165.228 204.37 165.148 204.41 165.068 204.41 164.988 204.41 164.907 204.41 164.827 204.45 164.707 204.45 164.627 204.45 164.546 204.45 164.466 204.45 164.386 204.45 164.306 204.45 164.186 204.45 164.105 204.45 164.025 204.41 163.945 204.41 163.865 204.41 163.785 204.37 163.704 204.33 163.584 204.289 163.504 204.289 163.424 204.249 163.343 204.209 163.263 204.169 163.183 204.129 163.103 204.089 163.023 204.049 162.942 204.009 162.862 203.969 162.782 203.929 162.742 203.848 162.662 203.768 162.581 203.728 162.501 203.648 162.421 203.608 162.381 203.568 162.341 203.527 162.301 203.527 162.301 203.487 162.261 203.487 162.261 203.407 162.18 203.327 162.14 203.247 162.1 203.167 162.06 203.086 162.02 203.046 161.98 203.006 161.98 203.006 161.94 202.966 161.94 202.445 161.699 190.173 155.603 177.58 155.603 164.988 155.603 152.716 161.659 152.194 161.94 152.235 162.22 152.235 162.22 152.194 162.22ZM197.392 165.589 190.173 173.73C187.566 172.688 182.673 171.003 177.701 171.003 172.688 171.003 167.795 172.688 165.228 173.73L158.01 165.589C162.261 163.865 170.041 161.258 177.741 161.258 185.32 161.258 193.1 163.865 197.392 165.589Z" stroke="#A5A5A5" stroke-width="1.32846" fill="#FFFFFF" transform="matrix(1.0008 0 0 1 188.479 110)"/><path d="M188.769 183.355C188.529 183.235 183.195 180.588 177.66 180.588 172.126 180.588 166.792 183.235 166.552 183.355 165.228 184.037 164.667 185.641 165.349 186.965 166.03 188.288 167.634 188.849 168.958 188.168 168.998 188.128 173.409 185.962 177.66 185.962 181.911 185.962 186.323 188.128 186.363 188.168 186.764 188.368 187.165 188.448 187.566 188.448 188.569 188.448 189.491 187.887 189.972 186.965 190.614 185.641 190.093 183.997 188.769 183.355Z" stroke="#A5A5A5" stroke-width="1.32846" fill="#FFFFFF" transform="matrix(1.0008 0 0 1 188.479 110)"/><path d="M231.921 345.054C231.56 344.774 222.617 337.916 213.353 337.916 206.295 337.916 199.477 341.846 196.429 343.891 193.381 341.846 186.564 337.916 179.505 337.916 170.241 337.916 161.298 344.774 160.937 345.054 159.774 345.977 159.574 347.661 160.456 348.824 160.977 349.506 161.779 349.867 162.581 349.867 163.143 349.867 163.744 349.666 164.226 349.305 164.306 349.225 172.046 343.29 179.465 343.29 186.884 343.29 194.665 349.225 194.705 349.305 194.785 349.345 194.865 349.386 194.905 349.426 194.945 349.466 195.025 349.506 195.066 349.546 195.146 349.586 195.266 349.626 195.346 349.666 195.426 349.706 195.467 349.706 195.547 349.746 195.627 349.787 195.747 349.787 195.828 349.827 195.908 349.827 195.988 349.867 196.068 349.867 196.148 349.867 196.229 349.867 196.349 349.867 196.429 349.867 196.509 349.867 196.63 349.867 196.71 349.867 196.79 349.827 196.87 349.827 196.95 349.827 197.071 349.787 197.151 349.746 197.231 349.706 197.271 349.706 197.351 349.666 197.432 349.626 197.552 349.586 197.632 349.546 197.712 349.506 197.753 349.466 197.833 349.426 197.913 349.386 197.993 349.345 198.033 349.305 198.113 349.225 205.894 343.29 213.273 343.29 220.692 343.29 228.472 349.225 228.552 349.305 229.034 349.666 229.635 349.867 230.197 349.867 230.999 349.867 231.801 349.506 232.322 348.824 233.325 347.661 233.124 345.977 231.921 345.054Z" stroke="#A5A5A5" stroke-width="1.32846" fill="#FFFFFF" transform="matrix(1.0008 0 0 1 188.479 110)"/><path d="M159.975 334.427C159.975 334.507 159.975 334.547 160.015 334.627 160.055 334.707 160.055 334.828 160.095 334.908 160.135 334.988 160.135 335.068 160.175 335.149 160.215 335.229 160.255 335.269 160.295 335.349 160.336 335.429 160.416 335.51 160.456 335.63 160.456 335.63 160.496 335.67 160.496 335.71 160.536 335.75 160.536 335.75 160.576 335.79 160.656 335.911 160.777 335.991 160.857 336.111 160.897 336.151 160.937 336.191 160.977 336.231 161.098 336.312 161.218 336.392 161.338 336.472 161.378 336.472 161.418 336.512 161.458 336.512 161.819 336.673 162.18 336.753 162.581 336.753 162.662 336.753 162.742 336.753 162.822 336.713 162.902 336.713 162.942 336.713 163.023 336.713 163.103 336.713 163.223 336.673 163.303 336.632 163.343 336.632 163.424 336.592 163.464 336.592 163.544 336.552 163.664 336.512 163.744 336.472 163.785 336.432 163.865 336.432 163.905 336.392 163.985 336.352 164.065 336.272 164.145 336.231 164.145 336.231 164.186 336.191 164.186 336.191 164.266 336.111 172.046 330.176 179.465 330.176 186.884 330.176 194.665 336.111 194.705 336.191 194.745 336.191 194.745 336.231 194.785 336.231 194.865 336.312 194.985 336.352 195.066 336.392 195.106 336.432 195.146 336.432 195.186 336.472 195.186 336.472 195.226 336.472 195.226 336.472 195.346 336.512 195.426 336.552 195.547 336.592 195.587 336.592 195.667 336.632 195.707 336.632 195.707 336.632 195.707 336.632 195.747 336.632 195.747 336.632 195.787 336.632 195.787 336.632 195.868 336.673 195.988 336.673 196.068 336.673 196.148 336.673 196.188 336.673 196.269 336.673 196.309 336.673 196.349 336.673 196.389 336.673 196.429 336.673 196.469 336.673 196.509 336.673 196.549 336.673 196.59 336.673 196.63 336.673 196.67 336.673 196.71 336.673 196.75 336.673 196.79 336.673 196.83 336.673 196.87 336.673 196.95 336.673 197.031 336.632 197.071 336.632 197.151 336.592 197.231 336.592 197.311 336.552 197.392 336.512 197.472 336.472 197.552 336.472 197.592 336.432 197.632 336.432 197.672 336.392 197.712 336.392 197.712 336.352 197.753 336.352 197.753 336.352 197.753 336.352 197.753 336.352 197.833 336.312 197.913 336.272 197.953 336.191 197.993 336.191 197.993 336.151 198.033 336.151 198.113 336.071 205.854 330.136 213.273 330.136 220.692 330.136 228.472 336.071 228.552 336.151 228.552 336.151 228.592 336.191 228.592 336.191 228.673 336.272 228.793 336.312 228.913 336.392 228.953 336.432 228.993 336.432 229.034 336.472 229.154 336.512 229.274 336.552 229.395 336.592 229.435 336.592 229.475 336.632 229.555 336.632 229.675 336.673 229.796 336.673 229.916 336.673 229.996 336.673 230.036 336.673 230.116 336.673 230.157 336.673 230.197 336.673 230.237 336.673 230.317 336.673 230.397 336.673 230.437 336.632 230.517 336.632 230.558 336.632 230.638 336.632 230.758 336.632 230.878 336.592 230.959 336.552 230.999 336.552 231.079 336.512 231.119 336.512 231.239 336.472 231.32 336.432 231.44 336.392 231.48 336.352 231.56 336.352 231.6 336.312 231.68 336.272 231.801 336.191 231.881 336.111 231.921 336.071 231.961 336.031 232.001 335.991 232.081 335.911 232.162 335.83 232.242 335.71 232.282 335.67 232.282 335.67 232.322 335.63 232.322 335.63 232.322 335.59 232.362 335.59 232.442 335.51 232.483 335.389 232.563 335.269 232.603 335.229 232.643 335.149 232.643 335.109 232.683 335.028 232.723 334.908 232.763 334.828 232.803 334.748 232.803 334.667 232.843 334.627 232.884 334.547 232.884 334.467 232.884 334.347 232.884 334.266 232.924 334.146 232.924 334.066 232.924 334.026 232.924 334.026 232.924 333.986L232.924 294.523C232.924 294.483 232.924 294.403 232.924 294.363 232.924 294.283 232.924 294.162 232.884 294.082 232.884 294.002 232.843 293.922 232.843 293.842 232.803 293.761 232.803 293.641 232.763 293.561 232.723 293.481 232.723 293.4 232.683 293.36 232.643 293.28 232.603 293.2 232.563 293.12 232.523 293.039 232.483 292.999 232.442 292.919 232.402 292.839 232.322 292.759 232.242 292.679 232.202 292.598 232.122 292.558 232.041 292.518 232.001 292.478 231.961 292.438 231.921 292.398 231.56 292.117 222.617 285.259 213.353 285.259 206.335 285.259 199.477 289.19 196.429 291.235 193.381 289.19 186.564 285.259 179.505 285.259 170.241 285.259 161.298 292.117 160.937 292.398 160.897 292.438 160.857 292.478 160.777 292.518 160.737 292.558 160.656 292.598 160.616 292.679 160.536 292.759 160.456 292.839 160.416 292.919 160.376 292.959 160.336 292.999 160.295 293.08 160.215 293.16 160.175 293.28 160.135 293.36 160.095 293.4 160.095 293.481 160.055 293.521 160.015 293.641 159.975 293.721 159.975 293.842 159.975 293.922 159.935 293.962 159.935 294.042 159.894 294.162 159.894 294.283 159.894 294.403 159.894 294.443 159.894 294.483 159.894 294.523L159.894 333.986C159.894 334.026 159.894 334.026 159.894 334.066 159.975 334.186 159.975 334.306 159.975 334.427ZM227.59 295.927 227.59 329.053C224.061 327.048 218.767 324.722 213.353 324.722 207.939 324.722 202.685 327.048 199.116 329.053L199.116 295.927C201.482 294.323 207.498 290.673 213.353 290.673 219.208 290.673 225.224 294.363 227.59 295.927ZM193.782 295.967 193.782 329.093C190.253 327.088 184.959 324.762 179.545 324.762 174.131 324.762 168.878 327.088 165.308 329.093L165.308 295.967C167.675 294.363 173.69 290.713 179.545 290.713 185.36 290.673 191.416 294.363 193.782 295.967Z" stroke="#A5A5A5" stroke-width="1.32846" fill="#FFFFFF" transform="matrix(1.0008 0 0 1 188.479 110)"/><path d="M164.186 74.473C157.929 60.6372 150.991 47.844 142.65 47.844 134.348 47.844 127.37 60.6372 121.114 74.473L120.031 76.8391C117.063 83.0954 114.016 89.5922 114.016 96.2896 114.016 100.821 118.106 105.072 122.477 105.072 124.122 105.072 126.327 104.23 130.458 102.626 134.388 101.102 139.762 98.9765 142.65 98.9765 145.497 98.9765 150.911 101.102 154.841 102.626 158.972 104.23 161.218 105.072 162.822 105.072 167.153 105.072 171.284 100.781 171.284 96.2896 171.284 89.5922 168.236 83.0954 165.268 76.8391L164.186 74.473ZM162.862 99.7385C162.06 99.6984 159.012 98.4953 156.806 97.6531 151.994 95.7682 146.54 93.6427 142.65 93.6427 138.76 93.6427 133.306 95.7682 128.493 97.6531 126.287 98.4953 123.28 99.6984 122.477 99.7385 121.194 99.7385 119.389 98.014 119.389 96.3297 119.389 90.8354 122.076 85.1808 124.884 79.1652L126.007 76.7188C128.653 70.9038 136.634 53.258 142.61 53.258 148.585 53.258 156.606 70.9038 159.213 76.7188L160.336 79.1652C163.183 85.1808 165.83 90.8354 165.83 96.3297 165.91 98.014 164.105 99.7385 162.862 99.7385Z" stroke="#A5A5A5" stroke-width="1.32846" fill="#FFFFFF" transform="matrix(1.0008 0 0 1 188.479 110)"/><path d="M106.035 96.9713C107.519 96.9713 108.722 95.7682 108.722 94.2844 108.722 92.8005 107.519 91.5974 106.035 91.5974L35.0508 91.5974C33.567 91.5974 32.3639 92.8005 32.3639 94.2844L32.3639 368.676C32.3639 374.771 36.4946 379.985 43.2722 382.311L119.951 404.087C126.728 406.012 134.549 408.619 141.046 413.592 141.166 413.712 141.326 413.792 141.487 413.873 141.527 413.873 141.567 413.913 141.607 413.913 141.727 413.953 141.888 414.033 142.008 414.073 142.048 414.073 142.088 414.113 142.128 414.113 142.289 414.153 142.489 414.194 142.65 414.194 142.65 414.194 142.65 414.194 142.65 414.194 142.65 414.194 142.65 414.194 142.65 414.194 142.81 414.194 143.011 414.153 143.171 414.113 143.211 414.113 143.251 414.073 143.291 414.073 143.412 414.033 143.572 413.993 143.692 413.913 143.733 413.913 143.773 413.873 143.813 413.873 143.973 413.792 144.093 413.712 144.254 413.592 150.751 408.619 158.571 405.972 165.349 404.087L242.148 382.271C248.805 379.985 252.936 374.771 252.936 368.676L252.936 94.2844C252.936 92.8005 251.732 91.5974 250.249 91.5974L179.265 91.5974C177.781 91.5974 176.578 92.8005 176.578 94.2844 176.578 95.7682 177.781 96.9713 179.265 96.9713L247.562 96.9713 247.562 247.642 145.337 247.642 145.337 236.974C145.457 236.533 145.457 236.052 145.337 235.611L145.337 107.198C145.337 105.714 144.134 104.511 142.65 104.511 141.166 104.511 139.963 105.714 139.963 107.198L139.963 151.072C139.321 151.793 138.599 152.555 137.797 153.438 132.864 158.691 124.362 167.755 116.823 184.759 109.243 169.961 105.153 162.742 103.428 161.017 102.466 160.055 101.583 159.253 100.701 158.531 100.661 158.491 100.661 158.491 100.621 158.451 97.5729 155.924 95.1265 154.681 93.6026 154.079L93.6427 153.959C93.6828 153.678 93.6828 153.398 93.6828 153.117 97.9739 153.117 101.383 151.954 101.663 151.874L103.869 151.112 101.463 139.401 104.832 135.07 103.789 133.466C103.548 133.065 98.9765 126.167 95.4073 121.274 95.4073 121.274 95.3672 121.234 95.3672 121.234 94.1641 119.63 93.1213 118.267 92.3193 117.424 87.9881 112.772 78.323 113.855 71.2647 119.79 61.3991 128.092 64.5272 141.005 67.5751 146.74 66.8132 146.66 65.9309 146.5 64.8481 146.139 60.8778 144.896 58.7523 143.331 58.7523 143.331 57.5893 142.449 55.9049 142.65 54.9825 143.813 54.0601 144.976 54.3007 146.66 55.4637 147.583 55.7445 147.783 58.3913 149.748 63.2439 151.272 63.8856 151.473 64.5272 151.633 65.0887 151.753 61.2387 152.636 56.8674 154.32 53.7794 157.408 49.8091 161.378 42.4701 171.083 37.7779 177.46L37.7779 96.9713 106.035 96.9713ZM54.3809 188.89 58.7122 206.174C56.6669 210.385 48.1648 228.472 43.7935 246.639 43.7133 246.96 43.7133 247.321 43.7534 247.642L37.7378 247.642 37.7378 210.145 54.3809 188.89ZM71.5454 156.245 82.4136 183.676 82.4136 184.598C72.8689 177.059 68.0163 162.742 66.372 156.967 68.3772 156.566 70.2621 156.365 71.5454 156.245ZM96.8911 216.882C94.7255 214.957 93.2818 213.233 92.3193 211.869 93.4823 211.588 94.5651 211.348 95.6078 211.107 98.8562 210.345 101.704 209.663 104.471 208.701 102.225 211.428 99.6984 214.155 96.8911 216.882ZM87.7875 214.797C88.9104 216.401 90.5547 218.366 92.9208 220.532 91.2766 221.975 89.5521 223.419 87.7875 224.783L87.7875 214.797ZM83.4563 200.119C85.1407 198.996 86.5443 198.755 87.6672 199.437 89.111 200.359 89.8328 202.485 89.6724 203.527 89.4719 204.891 88.2688 206.255 86.7849 207.257 86.6245 207.337 86.5042 207.418 86.3438 207.538 84.9803 208.42 83.4563 208.942 82.4136 208.942 82.4136 208.942 82.3735 208.942 82.3735 208.942 81.1303 208.901 80.4084 207.859 79.3657 205.613L79.085 205.051C78.6438 203.768 79.0449 203.086 83.4563 200.119ZM83.4563 234.087C83.5365 234.207 83.6167 234.327 83.737 234.408L96.9312 247.642 59.2335 247.642C65.7705 240.303 71.7459 238.338 77.0397 236.573 79.2855 235.851 81.4511 235.129 83.4563 234.087ZM139.963 253.016 139.963 305.191 125.565 305.191 122.437 267.333C122.437 267.253 122.397 267.213 122.397 267.172 122.397 267.092 122.357 267.012 122.357 266.932 122.317 266.812 122.277 266.731 122.277 266.611 122.277 266.571 122.237 266.491 122.197 266.451 122.157 266.33 122.076 266.21 121.996 266.09 121.996 266.05 121.956 266.05 121.956 266.009 121.876 265.889 121.796 265.769 121.675 265.689 121.635 265.648 121.635 265.648 121.595 265.608 121.515 265.528 121.395 265.448 121.314 265.368 121.274 265.328 121.234 265.288 121.194 265.288 121.114 265.247 121.034 265.167 120.913 265.127 120.833 265.087 120.753 265.047 120.673 265.007 120.593 264.967 120.552 264.967 120.472 264.927 120.352 264.887 120.272 264.887 120.151 264.846 120.071 264.846 120.031 264.846 119.951 264.806 119.871 264.806 119.831 264.766 119.75 264.766L111.689 264.766C111.609 264.766 111.569 264.766 111.489 264.766 111.409 264.766 111.329 264.766 111.248 264.806 111.168 264.806 111.048 264.846 110.968 264.887 110.887 264.927 110.807 264.927 110.727 264.967 110.647 265.007 110.567 265.007 110.526 265.047 110.446 265.087 110.326 265.127 110.246 265.207 110.206 265.247 110.166 265.247 110.125 265.288 110.005 265.368 109.925 265.448 109.805 265.528 109.764 265.568 109.764 265.568 109.724 265.608 109.644 265.729 109.524 265.809 109.444 265.929 109.404 265.969 109.404 266.009 109.404 266.009 109.323 266.13 109.283 266.25 109.203 266.33 109.163 266.37 109.163 266.451 109.123 266.491 109.083 266.611 109.043 266.691 109.043 266.812 109.043 266.892 109.003 266.972 109.003 267.052 109.003 267.132 108.962 267.172 108.962 267.213L105.834 305.071 91.437 305.071 91.437 291.636C91.437 291.596 91.437 291.516 91.437 291.475 91.437 291.395 91.437 291.275 91.3969 291.195 91.3969 291.115 91.3568 291.034 91.3167 290.954 91.2766 290.874 91.2766 290.794 91.2365 290.713 91.1964 290.633 91.1563 290.513 91.1161 290.433 91.076 290.393 91.076 290.353 91.0359 290.272 91.0359 290.272 90.9958 290.232 90.9958 290.232 90.9557 290.152 90.8755 290.072 90.8354 289.992 90.7953 289.911 90.7552 289.871 90.675 289.791 90.6349 289.751 90.5547 289.671 90.4745 289.631 90.3943 289.55 90.3542 289.51 90.274 289.47 90.1938 289.43 90.1537 289.39 90.0734 289.35 89.9932 289.31 89.913 289.27 89.8328 289.23 89.7526 289.19 89.7125 289.19 89.6323 289.149 89.5521 289.109 89.4318 289.069 89.3516 289.069 89.2714 289.069 89.2313 289.029 89.1511 289.029 89.0308 289.029 88.9505 288.989 88.8302 288.989 88.8302 288.989 88.7901 288.989 88.7901 288.989 88.75 288.989 88.7099 288.989 88.6297 288.989 88.5094 288.989 88.4292 288.989 88.3089 289.029 88.2287 289.029 88.1485 289.069 88.0683 289.069 87.9881 289.109 87.9078 289.109 87.8276 289.149 87.7474 289.19 87.6271 289.23 87.5469 289.27 87.5068 289.31 87.4667 289.31 87.3865 289.35L64.5673 303.065 64.5673 291.676C64.5673 291.636 64.5673 291.556 64.5673 291.516 64.5673 291.435 64.5673 291.315 64.5272 291.235 64.5272 291.155 64.4871 291.074 64.447 290.994 64.4069 290.914 64.4069 290.834 64.3668 290.754 64.3267 290.673 64.2866 290.553 64.2465 290.473 64.2064 290.433 64.2064 290.393 64.1663 290.312 64.1663 290.312 64.1262 290.272 64.1262 290.272 64.0861 290.192 64.0059 290.112 63.9257 290.032 63.8856 289.952 63.8455 289.911 63.7653 289.871 63.6851 289.791 63.645 289.751 63.5647 289.711 63.4845 289.671 63.4444 289.591 63.3642 289.55 63.284 289.51 63.2439 289.47 63.1637 289.43 63.0835 289.39 63.0033 289.35 62.9231 289.31 62.8429 289.27 62.7627 289.27 62.7226 289.23 62.6424 289.19 62.522 289.149 62.4418 289.149 62.3616 289.149 62.3215 289.109 62.2413 289.109 62.121 289.109 62.0408 289.069 61.9205 289.069 61.9205 289.069 61.8804 289.069 61.8804 289.069 61.8403 289.069 61.8002 289.069 61.72 289.069 61.5997 289.069 61.5194 289.069 61.3991 289.109 61.3189 289.109 61.2387 289.149 61.1585 289.149 61.0783 289.19 60.9981 289.19 60.9179 289.23 60.8377 289.27 60.7174 289.31 60.6372 289.35 60.5971 289.39 60.557 289.39 60.4767 289.43L37.6576 303.146 37.6576 253.016 139.963 253.016ZM44.8763 377.218C41.4274 376.015 37.7378 373.167 37.7378 368.716L37.7378 309.402 59.2736 296.488 59.2736 307.878C59.2736 307.918 59.2736 307.998 59.2736 308.038 59.2736 308.119 59.2736 308.239 59.3137 308.319 59.3137 308.399 59.3538 308.479 59.3939 308.56 59.434 308.64 59.434 308.72 59.4741 308.8 59.5142 308.881 59.5544 309.001 59.5945 309.081 59.6346 309.121 59.6346 309.161 59.6747 309.241 59.6747 309.241 59.7148 309.282 59.7148 309.282 59.8351 309.482 59.9554 309.643 60.1158 309.763 60.1559 309.803 60.1559 309.803 60.196 309.843 60.3163 309.963 60.4767 310.044 60.5971 310.164 60.6372 310.204 60.7174 310.244 60.7575 310.244 60.8778 310.324 61.0382 310.364 61.1986 310.405 61.2387 310.405 61.3189 310.445 61.359 310.445 61.5596 310.485 61.7601 310.525 62.0007 310.525 62.0007 310.525 62.0007 310.525 62.0007 310.525 62.0007 310.525 62.0007 310.525 62.0007 310.525 62.0007 310.525 62.0007 310.525 62.0007 310.525 62.2012 310.525 62.4418 310.485 62.6424 310.445 62.6825 310.445 62.7627 310.405 62.8028 310.405 62.9632 310.364 63.1236 310.284 63.284 310.204 63.3241 310.204 63.3642 310.164 63.3642 310.164L86.1834 296.448 86.1834 307.838C86.1834 309.322 87.3865 310.525 88.8703 310.525L108.401 310.525C108.401 310.525 108.401 310.525 108.401 310.525 108.401 310.525 108.401 310.525 108.401 310.525 108.561 310.525 108.762 310.525 108.922 310.485 109.003 310.485 109.043 310.445 109.083 310.445 109.203 310.405 109.283 310.405 109.404 310.364 109.484 310.324 109.524 310.284 109.604 310.244 109.684 310.204 109.764 310.164 109.845 310.124 109.925 310.084 109.965 310.044 110.005 310.003 110.085 309.963 110.166 309.883 110.206 309.843 110.246 309.803 110.286 309.723 110.366 309.683 110.446 309.602 110.486 309.522 110.567 309.442 110.607 309.402 110.647 309.322 110.687 309.241 110.727 309.161 110.767 309.081 110.807 309.001 110.847 308.921 110.847 308.881 110.887 308.8 110.927 308.72 110.968 308.6 110.968 308.52 110.968 308.439 111.008 308.359 111.008 308.279 111.008 308.199 111.048 308.159 111.048 308.078L114.176 270.22 117.304 270.22 120.432 308.078C120.432 308.159 120.472 308.199 120.472 308.279 120.472 308.359 120.512 308.439 120.512 308.52 120.552 308.6 120.552 308.72 120.593 308.8 120.633 308.881 120.633 308.921 120.673 309.001 120.713 309.081 120.753 309.161 120.793 309.241 120.833 309.322 120.873 309.362 120.913 309.442 120.953 309.522 121.034 309.602 121.114 309.683 121.154 309.723 121.194 309.803 121.274 309.843 121.355 309.923 121.435 309.963 121.475 310.003 121.515 310.044 121.595 310.084 121.635 310.124 121.715 310.164 121.796 310.204 121.876 310.244 121.956 310.284 121.996 310.324 122.076 310.364 122.197 310.405 122.277 310.445 122.397 310.445 122.437 310.445 122.518 310.485 122.558 310.485 122.718 310.525 122.919 310.525 123.079 310.525 123.079 310.525 123.079 310.525 123.079 310.525 123.079 310.525 123.079 310.525 123.079 310.525L139.923 310.525 139.923 406.333C133.827 402.684 127.21 400.478 121.355 398.834L44.8763 377.218ZM247.562 253.016 247.562 368.716C247.562 373.167 243.872 376.055 240.543 377.178L163.905 398.954C158.05 400.598 151.432 402.764 145.337 406.453L145.337 253.016 247.562 253.016ZM103.468 247.642C103.468 246.96 103.187 246.318 102.706 245.797L88.2287 231.279C91.1161 229.154 94.1239 226.667 97.1317 223.98 101.022 226.828 106.155 229.836 112.973 232.683 126.528 238.378 134.348 239.902 138.92 239.902 139.281 239.902 139.642 239.902 139.963 239.862L139.963 247.602 103.468 247.602ZM139.963 159.012 139.963 234.448C137.436 234.688 130.578 234.247 115.058 227.71 109.123 225.224 104.591 222.617 101.142 220.211 108.481 212.992 115.098 204.65 117.906 196.67 125.084 176.137 133.947 165.509 139.963 159.012ZM114.136 191.336C113.695 192.499 113.254 193.702 112.812 194.905 112.291 196.349 111.609 197.913 110.727 199.477 105.153 203.287 101.102 204.289 94.6052 205.773 94.7656 205.292 94.8859 204.811 94.9661 204.289 95.2469 202.405 94.7255 199.918 93.4021 197.833L106.837 189.411C108.08 188.609 108.481 186.965 107.679 185.681 106.877 184.438 105.233 184.037 103.99 184.839L89.111 194.183C88.7099 194.023 88.2688 193.903 87.7875 193.822L87.7875 192.539C95.8083 184.679 99.2974 173.169 100.701 166.351 102.385 168.998 106.075 175.535 114.136 191.336ZM96.089 161.739C95.5276 165.509 93.5224 175.936 87.7875 184.197L87.7875 183.435 92.5198 159.493C93.4021 159.935 94.6453 160.616 96.089 161.739ZM97.613 147.382C94.2042 148.024 87.7875 148.425 84.0579 143.612 83.1355 142.449 81.4511 142.249 80.2881 143.131 79.1251 144.053 78.9246 145.738 79.8068 146.901 82.2933 150.069 85.4214 151.713 88.5094 152.515 88.4693 152.636 88.4292 152.756 88.3891 152.916L84.2183 173.931 75.8767 152.515C75.8767 152.475 75.8767 152.475 75.8767 152.435 75.8767 152.395 73.9918 147.181 78.7641 136.674 81.7719 130.017 88.9104 126.969 92.1589 125.886 94.2844 128.854 96.6505 132.343 98.2547 134.749L95.7281 137.998 97.613 147.382ZM74.7136 123.921C80.2079 119.309 86.5844 119.149 88.3891 121.114 88.4693 121.234 88.5896 121.355 88.7099 121.475 84.2584 123.199 77.2402 127.009 73.8314 134.549 72.6282 137.196 71.7861 139.562 71.2246 141.687 69.7809 137.476 68.1767 129.415 74.7136 123.921ZM37.7779 186.523C37.8982 186.323 51.8945 166.913 57.5492 161.258 58.5919 160.215 59.8752 159.413 61.2387 158.731 63.2439 165.87 69.4199 183.476 82.4136 191.135L82.4136 194.584C81.6917 194.905 80.9699 195.306 80.1678 195.828 76.5183 198.274 71.9866 201.322 74.072 207.057L74.5131 207.979C75.4756 210.024 77.4808 214.315 82.2933 214.396 82.3334 214.396 82.3735 214.396 82.4136 214.396L82.4136 228.472C80.5287 229.796 78.2027 230.558 75.3553 231.52 69.2595 233.525 61.6398 236.012 53.5388 246.038 53.1377 246.519 52.9773 247.08 52.9372 247.682L49.007 247.682C53.7794 228.111 63.8054 207.939 63.8856 207.738 63.9257 207.698 63.9257 207.658 63.9257 207.618 63.9658 207.538 64.0059 207.458 64.0059 207.337 64.046 207.257 64.046 207.177 64.0861 207.097 64.0861 207.017 64.1262 206.936 64.1262 206.856 64.1262 206.776 64.1262 206.656 64.1262 206.575 64.1262 206.495 64.1262 206.415 64.1262 206.335 64.1262 206.214 64.0861 206.134 64.0861 206.014 64.0861 205.974 64.0861 205.934 64.0861 205.894L58.1908 182.353C58.1908 182.313 58.1908 182.313 58.1507 182.272 58.1106 182.152 58.0705 182.072 58.0304 181.952 57.9903 181.871 57.9903 181.831 57.9502 181.751 57.9101 181.671 57.87 181.591 57.7898 181.51 57.7497 181.43 57.7096 181.39 57.6695 181.31 57.6294 181.23 57.5492 181.19 57.5091 181.109 57.4288 181.029 57.3887 180.989 57.3085 180.909 57.2684 180.909 57.2684 180.869 57.2283 180.829 57.1882 180.789 57.1481 180.789 57.0679 180.748 56.9877 180.708 56.9476 180.668 56.8674 180.628 56.7872 180.588 56.707 180.548 56.5867 180.508 56.5065 180.468 56.4663 180.468 56.3861 180.428 56.2658 180.388 56.1856 180.388 56.0653 180.347 55.9851 180.347 55.945 180.307 55.8648 180.307 55.7445 180.307 55.6242 180.307 55.544 180.307 55.4637 180.307 55.4236 180.307 55.3434 180.307 55.2231 180.307 55.1028 180.347 54.9825 180.347 54.9424 180.347 54.9023 180.347 54.8622 180.347 54.8622 180.347 54.8221 180.347 54.8221 180.388 54.7018 180.428 54.5815 180.468 54.4612 180.508 54.421 180.548 54.3408 180.548 54.3007 180.588 54.2205 180.628 54.1002 180.708 54.02 180.748 53.9799 180.789 53.8997 180.829 53.8596 180.869 53.7794 180.909 53.6992 180.989 53.6591 181.069 53.5789 181.149 53.5388 181.19 53.4987 181.27 53.4586 181.31 53.4586 181.31 53.4184 181.35L37.6175 201.482 37.6175 186.684C37.7378 186.564 37.7779 186.564 37.7779 186.523Z" stroke="#A5A5A5" stroke-width="1.32846" fill="#FFFFFF" transform="matrix(1.0008 0 0 1 188.479 110)"/><path d="M271.784 70.0616 172.246 70.0616C170.763 70.0616 169.559 71.2647 169.559 72.7485 169.559 74.2324 170.763 75.4355 172.246 75.4355L269.097 75.4355 269.097 368.676C269.097 382.15 259.753 393.259 244.153 398.352L168.838 419.888C168.838 419.888 168.838 419.888 168.797 419.888 168.797 419.888 168.797 419.888 168.757 419.888 154.119 424.38 146.299 430.556 142.65 434.205 139 430.516 131.18 424.38 116.542 419.888 116.542 419.888 116.542 419.888 116.502 419.888 116.502 419.888 116.502 419.888 116.462 419.888L41.2268 398.393C25.5462 393.259 16.1619 382.15 16.1619 368.676L16.1619 75.4355 113.013 75.4355C114.497 75.4355 115.7 74.2324 115.7 72.7485 115.7 71.2647 114.497 70.0616 113.013 70.0616L13.515 70.0616C12.0312 70.0616 10.8281 71.2647 10.8281 72.7485L10.8281 368.676C10.8281 384.356 21.8566 397.711 39.7029 403.566L115.018 425.062C128.694 429.273 137.196 435.489 140.564 439.9 140.564 439.9 140.604 439.94 140.604 439.94 140.685 440.061 140.805 440.141 140.885 440.261 140.925 440.301 140.965 440.341 141.005 440.381 141.005 440.381 141.046 440.421 141.046 440.421 141.166 440.542 141.326 440.622 141.487 440.702 141.527 440.702 141.567 440.742 141.607 440.742 141.727 440.823 141.888 440.863 142.008 440.903 142.048 440.903 142.088 440.943 142.128 440.943 142.289 440.983 142.489 441.023 142.65 441.023 142.65 441.023 142.65 441.023 142.65 441.023 142.65 441.023 142.65 441.023 142.65 441.023 142.81 441.023 143.011 440.983 143.171 440.943 143.211 440.943 143.251 440.903 143.291 440.903 143.452 440.863 143.572 440.823 143.692 440.742 143.733 440.742 143.773 440.702 143.813 440.702 143.973 440.622 144.093 440.542 144.254 440.421 144.254 440.421 144.254 440.421 144.294 440.381 144.334 440.341 144.374 440.301 144.454 440.261 144.575 440.181 144.655 440.061 144.735 439.98 144.735 439.98 144.775 439.94 144.775 439.94 148.144 435.529 156.606 429.273 170.321 425.102L245.717 403.566C263.443 397.751 274.471 384.436 274.471 368.716L274.471 72.7485C274.471 71.2647 273.268 70.0616 271.784 70.0616Z" stroke="#A5A5A5" stroke-width="1.32846" fill="#FFFFFF" transform="matrix(1.0008 0 0 1 188.479 110)"/><path d="M100.099 41.4274C100.059 41.5076 100.019 41.5878 99.9791 41.668 99.939 41.7482 99.8989 41.8284 99.8989 41.9086 99.8588 41.9888 99.8588 42.069 99.8588 42.1492 99.8588 42.2295 99.8187 42.3097 99.8187 42.43 99.8187 42.5102 99.8187 42.5904 99.8187 42.6706 99.8187 42.7508 99.8187 42.831 99.8187 42.9513 99.8187 43.0315 99.8588 43.1117 99.8588 43.1919 99.8989 43.2722 99.8989 43.3925 99.939 43.4727 99.939 43.5128 99.939 43.5529 99.9791 43.5529 100.019 43.593 100.019 43.6732 100.059 43.7133 100.099 43.7534 100.099 43.8336 100.14 43.8737 100.18 43.994 100.26 44.0742 100.34 44.1945 100.34 44.2346 100.38 44.2346 100.38 44.2747 100.46 44.3951 100.581 44.5154 100.701 44.5956 100.741 44.6357 100.781 44.6758 100.821 44.6758 100.902 44.756 101.022 44.7961 101.102 44.8763 101.142 44.8763 101.142 44.9164 101.182 44.9164 101.182 44.9164 101.222 44.9164 101.222 44.9565 101.383 45.0367 101.583 45.1169 101.784 45.157 101.824 45.157 101.864 45.157 101.904 45.1971 102.105 45.2372 102.305 45.2773 102.506 45.2773 102.506 45.2773 102.506 45.2773 102.506 45.2773 102.506 45.2773 102.506 45.2773 102.506 45.2773 102.506 45.2773 102.506 45.2773 102.506 45.2773 102.706 45.2773 102.907 45.2372 103.107 45.1971 103.147 45.1971 103.228 45.157 103.268 45.157 103.308 45.157 103.388 45.1169 103.428 45.1169L123.36 37.6175C129.014 40.6253 137.998 43.9138 150.189 43.9138 172.808 43.9138 184.278 32.7248 184.719 32.2436 185.24 31.7222 185.521 31.0404 185.521 30.3587 185.521 29.6769 185.28 28.9951 184.719 28.4738 184.238 27.9926 172.808 16.8036 150.189 16.8036 138.038 16.8036 129.095 20.052 123.48 23.0598L103.428 15.6004C103.388 15.6004 103.348 15.6004 103.308 15.5603 103.228 15.5202 103.147 15.5202 103.067 15.5202 102.987 15.4801 102.867 15.4801 102.786 15.4801 102.706 15.4801 102.626 15.4801 102.546 15.4801 102.466 15.4801 102.345 15.4801 102.265 15.4801 102.185 15.4801 102.105 15.4801 102.065 15.5202 101.984 15.5202 101.864 15.5603 101.784 15.6004 101.704 15.6004 101.663 15.6405 101.583 15.6806 101.503 15.7207 101.383 15.7608 101.303 15.801 101.262 15.801 101.262 15.8411 101.222 15.8411 101.182 15.8812 101.142 15.8812 101.102 15.9213 100.982 15.9213 100.902 16.0015 100.821 16.0416 100.741 16.0817 100.701 16.1218 100.661 16.202 100.581 16.2822 100.541 16.3223 100.46 16.4025 100.42 16.4827 100.34 16.5228 100.3 16.603 100.26 16.6832 100.18 16.7634 100.14 16.8437 100.099 16.9239 100.059 17.0041 100.019 17.0843 100.019 17.1244 99.9791 17.1645 99.939 17.2046 99.939 17.2447 99.939 17.2848 99.8989 17.3249 99.8588 17.4051 99.8588 17.4853 99.8187 17.6056 99.8187 17.6858 99.7786 17.766 99.7786 17.8463 99.7786 17.9265 99.7786 18.0067 99.7786 18.0869 99.7786 18.1671 99.7786 18.2473 99.7786 18.3676 99.7786 18.4478 99.8187 18.528 99.8187 18.6082 99.8187 18.6884 99.8588 18.7686 99.8588 18.8489 99.8989 18.9291 99.8989 19.0093 99.939 19.0895 99.9791 19.1697 100.019 19.2499 100.059 19.3301 100.059 19.3702 100.099 19.4103 100.099 19.4103L106.195 30.3186 100.099 41.267C100.099 41.3472 100.099 41.3873 100.099 41.4274ZM178.503 30.3988C174.372 33.3264 164.867 38.58 150.149 38.58 138.278 38.58 129.857 35.2113 124.844 32.3639 124.844 32.3639 124.844 32.3639 124.844 32.3639 124.683 32.2837 124.563 32.2035 124.402 32.1634 124.362 32.1634 124.362 32.1634 124.322 32.1233 124.242 32.0832 124.082 32.043 123.961 32.043 123.921 32.043 123.841 32.043 123.801 32.0029 123.721 32.0029 123.6 32.0029 123.52 32.0029 123.44 32.0029 123.32 32.0029 123.239 32.0029 123.199 32.0029 123.119 32.0029 123.079 32.043 122.959 32.0832 122.798 32.1233 122.678 32.1634 122.678 32.1634 122.678 32.1634 122.638 32.1634L108.441 37.4972 112.411 30.3587 108.401 23.1801 122.718 28.5139C122.758 28.5139 122.798 28.554 122.838 28.554 122.919 28.5941 122.959 28.5941 123.039 28.5941 123.119 28.6342 123.239 28.6342 123.32 28.6342 123.4 28.6342 123.44 28.6342 123.52 28.6342 123.56 28.6342 123.6 28.6342 123.64 28.6342 123.721 28.6342 123.801 28.6342 123.841 28.6342 123.881 28.6342 123.921 28.6342 123.961 28.6342 124.122 28.5941 124.282 28.5941 124.443 28.5139 124.483 28.5139 124.483 28.5139 124.523 28.4738 124.643 28.4337 124.803 28.3535 124.924 28.3134 124.924 28.3134 124.964 28.3134 124.964 28.2733 129.937 25.466 138.318 22.0973 150.149 22.0973 164.907 22.2176 174.372 27.4712 178.503 30.3988Z" stroke="#A5A5A5" stroke-width="1.32846" fill="#FFFFFF" transform="matrix(1.0008 0 0 1 188.479 110)"/><path d="M110.125 343.611 107.278 343.611C107.078 342.127 106.717 340.723 106.195 339.36L108.601 337.956C109.885 337.234 110.326 335.59 109.604 334.266 108.842 332.983 107.198 332.542 105.915 333.264L103.468 334.667C102.546 333.504 101.543 332.502 100.38 331.579L101.784 329.133C102.546 327.85 102.105 326.205 100.781 325.443 99.4979 324.681 97.8536 325.123 97.0916 326.446L95.688 328.852C94.3646 328.331 92.9208 327.97 91.437 327.77L91.437 324.922C91.437 323.438 90.2339 322.235 88.75 322.235 87.2662 322.235 86.0631 323.438 86.0631 324.922L86.0631 327.77C84.5792 327.97 83.1756 328.331 81.812 328.852L80.4084 326.446C79.6464 325.163 78.0022 324.722 76.7188 325.443 75.4355 326.165 74.9944 327.81 75.7162 329.133L77.1199 331.579C75.9569 332.502 74.9543 333.504 74.0319 334.667L71.5855 333.264C70.3022 332.502 68.658 332.943 67.896 334.266 67.134 335.55 67.5751 337.194 68.8986 337.956L71.3048 339.36C70.7835 340.683 70.4225 342.127 70.222 343.611L67.3746 343.611C65.8908 343.611 64.6877 344.814 64.6877 346.298 64.6877 347.781 65.8908 348.984 67.3746 348.984L70.222 348.984C70.4225 350.468 70.7835 351.872 71.3048 353.236L68.8986 354.639C67.6152 355.361 67.1741 357.005 67.896 358.329 68.3772 359.171 69.2996 359.692 70.222 359.692 70.6631 359.692 71.1444 359.572 71.5454 359.331L73.9918 357.928C74.9142 359.091 75.9168 360.093 77.0798 361.016L75.6761 363.462C74.9142 364.745 75.3553 366.39 76.6787 367.152 77.1199 367.392 77.561 367.513 78.0022 367.513 78.9246 367.513 79.8469 367.031 80.3282 366.149L81.7318 363.743C83.0553 364.264 84.499 364.625 85.9828 364.826L85.9828 367.673C85.9828 369.157 87.186 370.36 88.6698 370.36 90.1537 370.36 91.3568 369.157 91.3568 367.673L91.3568 364.826C92.8406 364.625 94.2443 364.264 95.6078 363.743L97.0114 366.149C97.4927 366.991 98.4151 367.513 99.3375 367.513 99.7786 367.513 100.26 367.392 100.661 367.152 101.944 366.43 102.385 364.785 101.663 363.462L100.42 360.935C101.583 360.013 102.586 359.01 103.508 357.847L105.955 359.251C106.396 359.492 106.837 359.612 107.278 359.612 108.2 359.612 109.123 359.131 109.604 358.249 110.366 356.965 109.925 355.321 108.601 354.559L106.195 353.155C106.717 351.832 107.078 350.388 107.278 348.904L110.125 348.904C111.609 348.904 112.812 347.701 112.812 346.217 112.812 344.733 111.649 343.611 110.125 343.611ZM88.8302 359.692C81.4511 359.692 75.4756 353.717 75.4756 346.338 75.4756 338.958 81.4511 332.983 88.8302 332.983 96.2094 332.983 102.185 338.958 102.185 346.338 102.185 353.677 96.2094 359.692 88.8302 359.692Z" stroke="#A5A5A5" stroke-width="1.32846" fill="#FFFFFF" transform="matrix(1.0008 0 0 1 188.479 110)"/></g></svg>